<?xml version="1.0" encoding="UTF-8"?>
<svg width="11px" height="3px" viewBox="0 0 11 3" version="1.1" xmlns="http://www.w3.org/2000/svg" xmlns:xlink="http://www.w3.org/1999/xlink">
    <title>编组 6</title>
    <g id="修改" stroke="none" stroke-width="1" fill="none" fill-rule="evenodd">
        <g id="JOB查看进度-均衡计划" transform="translate(-643.000000, -150.000000)" fill="#74788D">
            <g id="编组-18" transform="translate(384.000000, 133.000000)">
                <g id="编组-15" transform="translate(161.000000, 9.000000)">
                    <g id="编组-10" transform="translate(70.000000, 1.000000)">
                        <g id="编组-6" transform="translate(28.000000, 7.000000)">
                            <path d="M7.50249727,0.299092488 L9.8984038,2.10453756 C10.1189409,2.27072419 10.1630007,2.58422572 9.99681404,2.80476282 C9.88276439,2.95611182 9.69933345,3.0243448 9.52418346,2.99854706 L9.5,3 L9.5,3 L0.5,3 C0.223857625,3 3.38176876e-17,2.77614237 0,2.5 C-3.38176876e-17,2.22385763 0.223857625,2 0.5,2 L8.097,1.99938169 L6.90068224,1.097728 C6.68014514,0.931541369 6.63608537,0.618039838 6.802272,0.397502732 C6.96845863,0.176965625 7.28196016,0.132905859 7.50249727,0.299092488 Z" id="形状结合"></path>
                        </g>
                    </g>
                </g>
            </g>
        </g>
    </g>
</svg>