<?xml version="1.0" encoding="UTF-8"?>
<svg width="191px" height="24px" viewBox="0 0 191 24" version="1.1" xmlns="http://www.w3.org/2000/svg" xmlns:xlink="http://www.w3.org/1999/xlink">
    <title>编组 4备份 2</title>
    <g id="迭代优化0803" stroke="none" stroke-width="1" fill="none" fill-rule="evenodd">
        <g id="集群卡片可编辑、删除" transform="translate(-20.000000, -12.000000)">
            <g id="编组-4备份-2" transform="translate(20.000000, 12.000000)">
                <g id="编组">
                    <g fill="#3761F3" id="Fill-1">
                        <path d="M18.5165308,15.1752138 C18.5165308,17.0700969 16.981982,18.6043062 15.0933066,18.6043062 C14.0523889,18.6043062 13.1187823,18.1359686 12.4963779,17.4038547 C12.4319913,17.3069573 12.3568735,17.2095215 12.2817557,17.1180073 C12.2763902,17.1077792 12.2656591,17.0964745 12.2602935,17.0916296 C11.5520402,16.2674632 10.5111225,15.7506769 9.34679705,15.7506769 C8.15564381,15.7506769 7.09219078,16.2895343 6.38930306,17.1454615 C6.38501062,17.1519214 6.37964506,17.1562279 6.37964506,17.1562279 C6.25409107,17.32849 6.2224343,17.4006248 6.02551842,17.667631 C5.39774847,18.4051281 4.46414188,18.8734657 3.41785862,18.8734657 C1.52918321,18.8734657 0,17.3392564 0,15.4443734 C0,13.548952 1.52918321,12.0152811 3.41785862,12.0152811 C4.29780967,12.0152811 5.10800849,12.3490389 5.70895067,12.8981243 C5.88869677,13.061235 6.01156798,13.2372653 6.1596573,13.3928395 C6.19185063,13.4310601 6.22940952,13.462821 6.26160285,13.4956584 C7.81761384,14.9168207 10.0443192,15.1208436 11.8256835,14.1685572 C12.3515079,13.8940145 12.8397735,13.511808 13.2582868,13.0375489 C13.5587578,12.6935631 13.8109389,12.3221229 14.0040989,11.92915 C14.9698988,10.034267 14.69089,7.69742401 13.2099968,6.14706516 L13.2046312,6.14222029 C13.134879,6.06093411 13.0597612,5.98610777 12.9739123,5.9107431 C12.9095257,5.85152801 12.845139,5.79177459 12.7753868,5.74332588 C12.2173691,5.13556368 11.8739735,4.32808511 11.8739735,3.43393718 C11.8739735,1.53959247 13.4085223,0 15.2918321,0 C17.1805076,0 18.7150563,1.53959247 18.7150563,3.43393718 C18.7150563,4.49496402 18.2375219,5.43702234 17.4863442,6.06685562 C17.4809786,6.07116218 17.4756131,6.07493041 17.4702475,6.077622 C17.3522053,6.14706516 17.2395287,6.22835134 17.1322176,6.31986557 C17.1214865,6.32524876 17.1161209,6.33009364 17.1107553,6.33601514 C16.2361699,7.06274585 15.6835177,8.15553351 15.6835177,9.37697942 C15.6835177,10.5510533 16.198611,11.6061586 17.0088098,12.3275061 L17.0141754,12.3328893 C17.1214865,12.4351699 17.2459673,12.5121495 17.3575709,12.6020488 C18.0711897,13.2318821 18.5165308,14.1524077 18.5165308,15.1752138"></path>
                    </g>
                    <g transform="translate(7.859070, 8.312662)" fill="#3761F3" id="Fill-3">
                        <path d="M13.4931479,15.4741639 C12.6550481,15.4741639 11.9038704,15.1038004 11.4027276,14.5240307 C11.3512182,14.4475894 11.2905875,14.3706098 11.2299567,14.2984751 C11.2256643,14.289862 11.2170794,14.2812489 11.2127869,14.2769423 C10.6424284,13.6250379 9.46039661,13.2164538 8.52357068,13.2164538 C7.56474598,13.2164538 5.70519478,13.6465707 5.13912871,14.3237761 L5.13537282,14.3280826 C5.04254872,14.477197 4.97601584,14.588629 4.84992529,14.7328985 C4.34502655,15.3164364 3.59331228,15.6873382 2.75092012,15.6873382 C1.23085835,15.6873382 0,14.4734288 0,12.9736719 C0,11.473915 1.23085835,10.2600056 2.75092012,10.2600056 C3.45970995,10.2600056 4.1116249,10.5248586 4.59506142,10.9587437 C4.70773808,11.0949384 4.82417063,11.2316715 4.95830951,11.3511783 C4.98406417,11.3807858 5.01411128,11.4060868 5.03986594,11.4313878 C6.29272307,12.5564746 9.42927639,12.7179703 10.8629527,11.9643237 C11.2857585,11.7468428 11.6790537,11.4448458 12.0160105,11.0696374 C12.2579971,10.797248 12.460815,10.5033258 12.6158796,10.1921774 C13.3938851,8.69242054 13.1690683,6.0916183 11.9773785,4.8647892 L11.9725495,4.86048265 C11.9113822,4.79965259 11.8571901,4.73559263 11.7869013,4.67745417 C11.7268071,4.62792882 11.7536349,4.6499999 11.6275443,4.54556601 C11.1779108,4.06377046 10.9015847,3.42478576 10.9015847,2.71797285 C10.9015847,1.21875432 12.1367355,0 13.6530414,0 C15.1731032,0 16.4077174,1.21875432 16.4077174,2.71797285 C16.4077174,3.55721224 16.0240802,4.3022458 15.4188456,4.80072923 C15.4107973,4.80665074 15.3646535,4.83625829 15.3560686,4.8394882 C15.2610983,4.89493506 15.2203201,4.92831085 15.1339346,5.00098392 C15.1253497,5.00529047 15.1210573,5.00959702 15.1167648,5.01390357 C14.412804,5.58882831 13.9679995,6.80668893 13.9679995,7.77350993 C13.9679995,8.7026486 14.3822203,9.93647585 15.0346718,10.507094 L15.0389643,10.5114006 C15.1253497,10.5926868 15.2208566,10.647057 15.3152904,10.7245749 C15.8899413,11.2230584 16.2483604,11.951404 16.2483604,12.7604976 C16.2483604,14.2602544 15.0132096,15.4741639 13.4931479,15.4741639 Z"></path>
                    </g>
                    <path d="M11.7863809,8.63200025 C11.7863809,10.3858437 10.371484,11.8091592 8.62338613,11.8091592 C7.9483993,11.8091592 7.32545835,11.5965232 6.8146575,11.2320812 C6.72827206,11.154025 6.63330173,11.0802753 6.53833141,11.0151387 L6.53350241,11.0108321 C5.88051435,10.4289092 5.46522038,9.57836513 5.46522038,8.63200025 C5.46522038,7.64633808 5.91056145,6.76510981 6.61613196,6.17888037 C6.6204244,6.17511214 6.62471684,6.17080558 6.63330173,6.16596071 C6.71968717,6.092211 6.81090161,6.0270744 6.90587193,5.97108922 C6.91016438,5.96193779 6.91445682,5.95763124 6.91874927,5.96193779 C7.40755134,5.64056133 7.99186029,5.45430294 8.62338613,5.45430294 C10.371484,5.45430294 11.7863809,6.87815681 11.7863809,8.63200025" id="Fill-5" fill="#1EDABD"></path>
                </g>
                <g id="Streaming" transform="translate(32.808577, 6.625963)" fill="#05133F" fill-rule="nonzero">
                    <path d="M59.6443812,13.7211429 L59.6443812,11.2731429 L65.9186669,11.2731429 C66.9198098,11.2731429 67.5849526,11.1771429 67.9140955,10.9851429 C68.3940955,10.6971429 68.6340955,10.2651429 68.6340955,9.68914286 C68.6340955,9.01714286 68.3529526,8.53028571 67.7906669,8.22857143 C67.4752383,8.05028571 66.9678098,7.96114286 66.2683812,7.96114286 L63.717524,7.96114286 C62.1678098,7.96114286 61.0500955,7.68 60.3643812,7.11771429 C59.9392383,6.76114286 59.6066669,6.31542857 59.3666669,5.78057143 C59.1266669,5.24571429 59.0066669,4.66971429 59.0066669,4.05257143 C59.0066669,3.09257143 59.2878098,2.21485714 59.8500955,1.41942857 C60.3986669,0.651428571 61.2763812,0.198857143 62.4832383,0.0617142857 C62.8946669,0.0205714286 63.5049526,0 64.3140955,0 L71.1232383,0 L71.1232383,2.448 L64.9723812,2.448 C64.053524,2.46171429 63.4432383,2.50285714 63.141524,2.57142857 C62.5243812,2.72228571 62.2158098,3.18857143 62.2158098,3.97028571 C62.2158098,4.62857143 62.4763812,5.06742857 62.997524,5.28685714 C63.3403812,5.45142857 63.9163812,5.53371429 64.725524,5.53371429 L66.9266669,5.53371429 C68.0512383,5.53371429 68.8878098,5.62971429 69.4363812,5.82171429 C70.4100955,6.15085714 71.0820955,6.72685714 71.4523812,7.54971429 C71.7403812,8.208 71.8843812,8.91428571 71.8843812,9.66857143 C71.8843812,10.5051429 71.6923812,11.2525714 71.3083812,11.9108571 C70.773524,12.8434286 69.9712383,13.4057143 68.901524,13.5977143 C68.3803812,13.68 67.5918098,13.7211429 66.5358098,13.7211429 L59.6443812,13.7211429 Z M74.6820955,3.70285714 L74.6820955,0 L77.4386669,0 L77.4386669,3.70285714 L79.989524,3.70285714 L79.989524,5.84228571 L77.4386669,5.84228571 L77.4386669,9.48342857 C77.4386669,10.3337143 77.5140955,10.8685714 77.6649526,11.088 C77.8980955,11.4171429 78.309524,11.5817143 78.8992383,11.5817143 L79.989524,11.5817143 L79.989524,13.7211429 L77.9940955,13.7211429 C76.8009526,13.7211429 75.9506669,13.4331429 75.4432383,12.8571429 C74.9358098,12.2811429 74.6820955,11.3142857 74.6820955,9.95657143 L74.6820955,5.84228571 L72.933524,5.84228571 L72.933524,3.70285714 L74.6820955,3.70285714 Z M81.861524,3.70285714 L85.9346669,3.70285714 C86.7712383,3.70285714 87.4192383,3.76114286 87.8786669,3.87771429 C88.3380955,3.99428571 88.7186669,4.18971429 89.0203812,4.464 C89.3220955,4.73828571 89.5346669,5.08114286 89.6580955,5.49257143 C89.781524,5.904 89.8432383,6.49371429 89.8432383,7.26171429 L89.8432383,8.22857143 L87.189524,8.22857143 L87.189524,7.69371429 C87.189524,6.98057143 87.0660955,6.49371429 86.8192383,6.23314286 C86.5723812,5.97257143 86.0992383,5.84228571 85.3998098,5.84228571 L84.6180955,5.84228571 L84.6180955,13.7211429 L81.861524,13.7211429 L81.861524,3.70285714 Z M99.6763812,7.632 L99.6763812,9.77142857 L93.8752383,9.77142857 C93.9300955,10.4297143 94.1426669,10.896 94.5129526,11.1702857 C94.8832383,11.4445714 95.4866669,11.5817143 96.3232383,11.5817143 L99.6763812,11.5817143 L99.6763812,13.7211429 L96.0146669,13.7211429 C95.2192383,13.7211429 94.5712383,13.6491429 94.0706669,13.5051429 C93.5700955,13.3611429 93.1003812,13.1245714 92.661524,12.7954286 C91.4409526,11.8491429 90.8306669,10.4434286 90.8306669,8.57828571 C90.8306669,7.37142857 91.1529526,6.31542857 91.797524,5.41028571 C92.2363812,4.79314286 92.7643812,4.35428571 93.381524,4.09371429 C93.9986669,3.83314286 94.8078098,3.70285714 95.8089526,3.70285714 L99.6763812,3.70285714 L99.6763812,5.84228571 L96.0146669,5.84228571 C95.2603812,5.84228571 94.7323812,5.96914286 94.4306669,6.22285714 C94.1289526,6.47657143 93.9438098,6.94628571 93.8752383,7.632 L99.6763812,7.632 Z M108.830667,7.632 C108.830667,6.93257143 108.690095,6.45942857 108.408953,6.21257143 C108.12781,5.96571429 107.568953,5.84228571 106.732381,5.84228571 L102.083238,5.84228571 L102.083238,3.70285714 L106.732381,3.70285714 C107.568953,3.70285714 108.144953,3.72 108.460381,3.75428571 C108.77581,3.78857143 109.098095,3.85371429 109.427238,3.94971429 C110.949524,4.52571429 111.669524,5.904 111.587238,8.08457143 L111.587238,13.7211429 L105.786095,13.7211429 C104.74381,13.7211429 104.02381,13.6902857 103.626095,13.6285714 C103.228381,13.5668571 102.878667,13.44 102.576953,13.248 C101.76781,12.6994286 101.363238,11.8697143 101.363238,10.7588571 C101.363238,10.0868571 101.524381,9.48685714 101.846667,8.95885714 C102.168953,8.43085714 102.597524,8.07085714 103.132381,7.87885714 C103.598667,7.71428571 104.373524,7.632 105.456953,7.632 L108.830667,7.632 Z M108.830667,9.77142857 L105.662667,9.77142857 L105.189524,9.77142857 C104.874095,9.77142857 104.62381,9.85371429 104.438667,10.0182857 C104.253524,10.1828571 104.160953,10.4091429 104.160953,10.6971429 C104.160953,11.0125714 104.274095,11.2388571 104.500381,11.376 C104.726667,11.5131429 105.114095,11.5817143 105.662667,11.5817143 L108.830667,11.5817143 L108.830667,9.77142857 Z M114.158667,3.70285714 L124.27981,3.70285714 C125.198667,3.70285714 125.898095,3.77142857 126.378095,3.90857143 C126.858095,4.04571429 127.262667,4.28571429 127.59181,4.62857143 C128.195238,5.28685714 128.496953,6.192 128.496953,7.344 L128.496953,13.7211429 L125.740381,13.7211429 L125.740381,7.776 C125.740381,7.296 125.71981,6.96 125.678667,6.768 C125.637524,6.576 125.541524,6.40457143 125.390667,6.25371429 C125.102667,5.97942857 124.670667,5.84228571 124.094667,5.84228571 L122.634095,5.84228571 L122.634095,13.7211429 L119.877524,13.7211429 L119.877524,5.84228571 L116.915238,5.84228571 L116.915238,13.7211429 L114.158667,13.7211429 L114.158667,3.70285714 Z M131.068381,3.70285714 L133.824953,3.70285714 L133.824953,13.7211429 L131.068381,13.7211429 L131.068381,3.70285714 Z M131.068381,2.67428571 L131.068381,0 L133.824953,0 L133.824953,2.67428571 L131.068381,2.67428571 Z M136.540381,3.70285714 L141.84781,3.70285714 C142.643238,3.70285714 143.250095,3.76114286 143.668381,3.87771429 C144.086667,3.99428571 144.467238,4.20342857 144.810095,4.50514286 C145.509524,5.14971429 145.859238,6.16457143 145.859238,7.54971429 L145.859238,13.7211429 L143.102667,13.7211429 L143.102667,7.24114286 C143.102667,6.74742857 142.992953,6.39085714 142.773524,6.17142857 C142.554095,5.952 142.190667,5.84228571 141.683238,5.84228571 L139.296953,5.84228571 L139.296953,13.7211429 L136.540381,13.7211429 L136.540381,3.70285714 Z M158.037524,3.70285714 L158.037524,13.6594286 C158.037524,14.2217143 157.972381,14.7222857 157.842095,15.1611429 C157.71181,15.6 157.523238,15.9702857 157.276381,16.272 C156.960953,16.656 156.580381,16.92 156.134667,17.064 C155.688953,17.208 155.040953,17.28 154.190667,17.28 L148.698095,17.28 L148.698095,15.1405714 L153.820381,15.1405714 C154.42381,15.1405714 154.818095,15.048 155.003238,14.8628571 C155.188381,14.6777143 155.280953,14.2971429 155.280953,13.7211429 L152.750667,13.7211429 C151.941524,13.7211429 151.272953,13.6354286 150.744953,13.464 C150.216953,13.2925714 149.740381,13.008 149.315238,12.6102857 C148.314095,11.664 147.813524,10.3611429 147.813524,8.70171429 C147.813524,6.80914286 148.42381,5.43085714 149.644381,4.56685714 C150.083238,4.25142857 150.546095,4.02857143 151.032953,3.89828571 C151.51981,3.768 152.140381,3.70285714 152.894667,3.70285714 L158.037524,3.70285714 Z M155.280953,5.84228571 L152.997524,5.84228571 C151.406667,5.84228571 150.611238,6.80228571 150.611238,8.72228571 C150.611238,9.65485714 150.827238,10.3645714 151.259238,10.8514286 C151.691238,11.3382857 152.318667,11.5817143 153.141524,11.5817143 L155.280953,11.5817143 L155.280953,5.84228571 Z M2.92114286,8.29913915e-12 L2.92114286,13.7211429 L0,13.7211429 L0,8.29913915e-12 L2.92114286,8.29913915e-12 Z M3.024,6.78857143 L8.26971429,8.29913915e-12 L12.1165714,8.29913915e-12 L6.37714286,6.78857143 L11.8491429,13.7211429 L8.00228571,13.7211429 L3.024,6.78857143 Z M13.4948571,3.70285714 L18.8022857,3.70285714 C19.5977143,3.70285714 20.2045714,3.76114286 20.6228571,3.87771429 C21.0411429,3.99428571 21.4217143,4.20342857 21.7645714,4.50514286 C22.464,5.14971429 22.8137143,6.16457143 22.8137143,7.54971429 L22.8137143,13.7211429 L20.0571429,13.7211429 L20.0571429,7.24114286 C20.0571429,6.74742857 19.9474286,6.39085714 19.728,6.17142857 C19.5085714,5.952 19.1451429,5.84228571 18.6377143,5.84228571 L16.2514286,5.84228571 L16.2514286,13.7211429 L13.4948571,13.7211429 L13.4948571,3.70285714 Z M30.0137143,3.55885714 C31.8651429,3.55885714 33.2297143,4.09371429 34.1074286,5.16342857 C34.9165714,6.13714286 35.3211429,7.36457143 35.3211429,8.84571429 C35.3211429,10.4091429 34.8137143,11.6571429 33.7988571,12.5897143 C32.8662857,13.44 31.5908571,13.8651429 29.9725714,13.8651429 C28.2994286,13.8651429 26.9897143,13.3851429 26.0434286,12.4251429 C25.1657143,11.5611429 24.7268571,10.2994286 24.7268571,8.64 C24.7268571,7.24114286 25.1451429,6.07542857 25.9817143,5.14285714 C26.9142857,4.10057143 28.2582857,3.57257143 30.0137143,3.55885714 Z M30.0342857,5.65714286 C28.3748571,5.65714286 27.5451429,6.68571429 27.5451429,8.74285714 C27.5451429,9.57942857 27.6822857,10.2171429 27.9565714,10.656 C28.4091429,11.3965714 29.1085714,11.7668571 30.0548571,11.7668571 C31.6868571,11.7668571 32.5028571,10.7451429 32.5028571,8.70171429 C32.5028571,6.69942857 31.68,5.68457143 30.0342857,5.65714286 Z M43.0971429,11.5817143 L43.0971429,3.70285714 L45.8537143,3.70285714 L45.8537143,11.5817143 L48.816,11.5817143 L48.816,3.70285714 L51.552,3.70285714 L51.552,13.7211429 L41.4308571,13.7211429 C40.512,13.7211429 39.8125714,13.6525714 39.3325714,13.5154286 C38.8525714,13.3782857 38.4548571,13.1382857 38.1394286,12.7954286 C37.536,12.1371429 37.2342857,11.232 37.2342857,10.08 L37.2342857,3.70285714 L39.9702857,3.70285714 L39.9702857,9.648 C39.9702857,10.128 39.9942857,10.464 40.0422857,10.656 C40.0902857,10.848 40.1828571,11.0194286 40.32,11.1702857 C40.608,11.4445714 41.04,11.5817143 41.616,11.5817143 L43.0971429,11.5817143 Z" id="形状结合"></path>
                </g>
                <g id="Know" transform="translate(32.808577, 6.625963)"></g>
            </g>
        </g>
    </g>
</svg>